<mxfile host="app.diagrams.net" modified="2022-03-11T00:25:32.471Z" agent="5.0 (Windows NT 10.0; Win64; x64) AppleWebKit/537.36 (KHTML, like Gecko) Chrome/99.0.4844.51 Safari/537.36" etag="UXYWQ0vgTsW6tkUzJyR1" version="17.1.1" type="github">
  <diagram id="oJRkiSpuS3rfBDDVX52c" name="Página-1">
    <mxGraphModel dx="782" dy="673" grid="1" gridSize="10" guides="1" tooltips="1" connect="1" arrows="1" fold="1" page="1" pageScale="1" pageWidth="827" pageHeight="1169" math="0" shadow="0">
      <root>
        <mxCell id="0" />
        <mxCell id="1" parent="0" />
        <mxCell id="o8nmWfJphG2Q7k-7art1-1" value="&lt;h1&gt;&lt;font style=&quot;font-size: 22px&quot;&gt;Libro&lt;/font&gt;&lt;/h1&gt;" style="rounded=0;whiteSpace=wrap;html=1;" vertex="1" parent="1">
          <mxGeometry x="119" y="240" width="120" height="79" as="geometry" />
        </mxCell>
        <mxCell id="o8nmWfJphG2Q7k-7art1-2" value="&lt;h1&gt;&lt;font style=&quot;font-size: 22px&quot;&gt;Socio&lt;/font&gt;&lt;/h1&gt;" style="rounded=0;whiteSpace=wrap;html=1;" vertex="1" parent="1">
          <mxGeometry x="559" y="240" width="120" height="80" as="geometry" />
        </mxCell>
        <mxCell id="o8nmWfJphG2Q7k-7art1-4" value="&lt;font style=&quot;font-size: 16px&quot;&gt;Préstamo&lt;/font&gt;" style="rhombus;whiteSpace=wrap;html=1;fontSize=22;" vertex="1" parent="1">
          <mxGeometry x="339" y="240" width="120" height="80" as="geometry" />
        </mxCell>
        <mxCell id="o8nmWfJphG2Q7k-7art1-6" value="" style="endArrow=none;html=1;rounded=0;fontSize=16;exitX=1;exitY=0.5;exitDx=0;exitDy=0;" edge="1" parent="1" source="o8nmWfJphG2Q7k-7art1-1">
          <mxGeometry width="50" height="50" relative="1" as="geometry">
            <mxPoint x="380" y="320" as="sourcePoint" />
            <mxPoint x="340" y="280" as="targetPoint" />
          </mxGeometry>
        </mxCell>
        <mxCell id="o8nmWfJphG2Q7k-7art1-7" value="" style="endArrow=none;html=1;rounded=0;fontSize=16;exitX=1;exitY=0.5;exitDx=0;exitDy=0;" edge="1" parent="1">
          <mxGeometry width="50" height="50" relative="1" as="geometry">
            <mxPoint x="459" y="279" as="sourcePoint" />
            <mxPoint x="560" y="279.5" as="targetPoint" />
          </mxGeometry>
        </mxCell>
        <mxCell id="o8nmWfJphG2Q7k-7art1-8" value="&lt;u&gt;&lt;font style=&quot;font-size: 12px&quot;&gt;ISBN&lt;/font&gt;&lt;/u&gt;" style="ellipse;whiteSpace=wrap;html=1;fontSize=16;" vertex="1" parent="1">
          <mxGeometry x="10" y="248" width="70" height="50" as="geometry" />
        </mxCell>
        <mxCell id="o8nmWfJphG2Q7k-7art1-10" value="&lt;font style=&quot;font-size: 12px&quot;&gt;Nombre Autor&lt;/font&gt;" style="ellipse;whiteSpace=wrap;html=1;fontSize=16;" vertex="1" parent="1">
          <mxGeometry x="159" y="45" width="70" height="50" as="geometry" />
        </mxCell>
        <mxCell id="o8nmWfJphG2Q7k-7art1-12" value="&lt;font style=&quot;font-size: 12px&quot;&gt;Código Autor&lt;/font&gt;" style="ellipse;whiteSpace=wrap;html=1;fontSize=16;" vertex="1" parent="1">
          <mxGeometry x="90" y="80" width="70" height="50" as="geometry" />
        </mxCell>
        <mxCell id="o8nmWfJphG2Q7k-7art1-17" style="edgeStyle=orthogonalEdgeStyle;rounded=0;orthogonalLoop=1;jettySize=auto;html=1;exitX=0.5;exitY=1;exitDx=0;exitDy=0;fontSize=12;" edge="1" parent="1">
          <mxGeometry relative="1" as="geometry">
            <mxPoint x="245" y="160" as="sourcePoint" />
            <mxPoint x="245" y="160" as="targetPoint" />
          </mxGeometry>
        </mxCell>
        <mxCell id="o8nmWfJphG2Q7k-7art1-18" value="&lt;font style=&quot;font-size: 12px&quot;&gt;Titulo&lt;/font&gt;" style="ellipse;whiteSpace=wrap;html=1;fontSize=16;" vertex="1" parent="1">
          <mxGeometry x="18" y="189" width="70" height="50" as="geometry" />
        </mxCell>
        <mxCell id="o8nmWfJphG2Q7k-7art1-19" value="&lt;font style=&quot;font-size: 12px&quot;&gt;Cantidad paginas&lt;/font&gt;" style="ellipse;whiteSpace=wrap;html=1;fontSize=16;" vertex="1" parent="1">
          <mxGeometry x="35" y="128" width="70" height="50" as="geometry" />
        </mxCell>
        <mxCell id="o8nmWfJphG2Q7k-7art1-20" value="&lt;font style=&quot;font-size: 12px&quot;&gt;Apellido Autor&lt;/font&gt;" style="ellipse;whiteSpace=wrap;html=1;fontSize=16;" vertex="1" parent="1">
          <mxGeometry x="209" y="99" width="70" height="50" as="geometry" />
        </mxCell>
        <mxCell id="o8nmWfJphG2Q7k-7art1-21" value="&lt;font style=&quot;font-size: 12px&quot;&gt;Nacimiento-Muerte&lt;/font&gt;" style="ellipse;whiteSpace=wrap;html=1;fontSize=16;" vertex="1" parent="1">
          <mxGeometry x="250" y="154" width="70" height="50" as="geometry" />
        </mxCell>
        <mxCell id="o8nmWfJphG2Q7k-7art1-22" value="&lt;font style=&quot;font-size: 12px&quot;&gt;Tipo Autor&lt;br&gt;&lt;/font&gt;" style="ellipse;whiteSpace=wrap;html=1;fontSize=16;" vertex="1" parent="1">
          <mxGeometry x="272" y="211" width="70" height="50" as="geometry" />
        </mxCell>
        <mxCell id="o8nmWfJphG2Q7k-7art1-24" value="" style="endArrow=none;html=1;rounded=0;fontSize=12;entryX=0;entryY=1;entryDx=0;entryDy=0;" edge="1" parent="1" target="o8nmWfJphG2Q7k-7art1-21">
          <mxGeometry width="50" height="50" relative="1" as="geometry">
            <mxPoint x="220" y="240" as="sourcePoint" />
            <mxPoint x="266" y="187" as="targetPoint" />
          </mxGeometry>
        </mxCell>
        <mxCell id="o8nmWfJphG2Q7k-7art1-25" value="" style="endArrow=none;html=1;rounded=0;fontSize=12;" edge="1" parent="1">
          <mxGeometry width="50" height="50" relative="1" as="geometry">
            <mxPoint x="200" y="240" as="sourcePoint" />
            <mxPoint x="230" y="150" as="targetPoint" />
          </mxGeometry>
        </mxCell>
        <mxCell id="o8nmWfJphG2Q7k-7art1-26" value="" style="endArrow=none;html=1;rounded=0;fontSize=12;exitX=0.567;exitY=0.038;exitDx=0;exitDy=0;exitPerimeter=0;" edge="1" parent="1">
          <mxGeometry width="50" height="50" relative="1" as="geometry">
            <mxPoint x="187.03999999999996" y="240.00199999999995" as="sourcePoint" />
            <mxPoint x="190" y="97" as="targetPoint" />
          </mxGeometry>
        </mxCell>
        <mxCell id="o8nmWfJphG2Q7k-7art1-27" value="" style="endArrow=none;html=1;rounded=0;fontSize=12;entryX=0.757;entryY=1.06;entryDx=0;entryDy=0;entryPerimeter=0;exitX=0.442;exitY=0.051;exitDx=0;exitDy=0;exitPerimeter=0;" edge="1" parent="1">
          <mxGeometry width="50" height="50" relative="1" as="geometry">
            <mxPoint x="172.03999999999996" y="239.029" as="sourcePoint" />
            <mxPoint x="142.99" y="128" as="targetPoint" />
          </mxGeometry>
        </mxCell>
        <mxCell id="o8nmWfJphG2Q7k-7art1-28" value="" style="endArrow=none;html=1;rounded=0;fontSize=12;" edge="1" parent="1">
          <mxGeometry width="50" height="50" relative="1" as="geometry">
            <mxPoint x="240" y="260" as="sourcePoint" />
            <mxPoint x="270" y="240" as="targetPoint" />
          </mxGeometry>
        </mxCell>
        <mxCell id="o8nmWfJphG2Q7k-7art1-29" value="" style="endArrow=none;html=1;rounded=0;fontSize=12;entryX=1;entryY=1;entryDx=0;entryDy=0;" edge="1" parent="1" target="o8nmWfJphG2Q7k-7art1-19">
          <mxGeometry width="50" height="50" relative="1" as="geometry">
            <mxPoint x="160" y="240" as="sourcePoint" />
            <mxPoint x="110" y="170" as="targetPoint" />
          </mxGeometry>
        </mxCell>
        <mxCell id="o8nmWfJphG2Q7k-7art1-30" value="" style="endArrow=none;html=1;rounded=0;fontSize=12;exitX=1;exitY=0.68;exitDx=0;exitDy=0;exitPerimeter=0;" edge="1" parent="1">
          <mxGeometry width="50" height="50" relative="1" as="geometry">
            <mxPoint x="88" y="224" as="sourcePoint" />
            <mxPoint x="120" y="250" as="targetPoint" />
          </mxGeometry>
        </mxCell>
        <mxCell id="o8nmWfJphG2Q7k-7art1-31" value="" style="endArrow=none;html=1;rounded=0;fontSize=12;" edge="1" parent="1">
          <mxGeometry width="50" height="50" relative="1" as="geometry">
            <mxPoint x="80" y="273" as="sourcePoint" />
            <mxPoint x="118" y="278" as="targetPoint" />
          </mxGeometry>
        </mxCell>
        <mxCell id="o8nmWfJphG2Q7k-7art1-32" value="&lt;font style=&quot;font-size: 12px&quot;&gt;&lt;u&gt;RUT&lt;/u&gt;&lt;/font&gt;" style="ellipse;whiteSpace=wrap;html=1;fontSize=16;" vertex="1" parent="1">
          <mxGeometry x="462" y="181" width="70" height="50" as="geometry" />
        </mxCell>
        <mxCell id="o8nmWfJphG2Q7k-7art1-33" value="&lt;font style=&quot;font-size: 12px&quot;&gt;Nombre&lt;/font&gt;" style="ellipse;whiteSpace=wrap;html=1;fontSize=16;" vertex="1" parent="1">
          <mxGeometry x="505" y="124" width="70" height="50" as="geometry" />
        </mxCell>
        <mxCell id="o8nmWfJphG2Q7k-7art1-34" value="&lt;font style=&quot;font-size: 12px&quot;&gt;Apellido&lt;/font&gt;" style="ellipse;whiteSpace=wrap;html=1;fontSize=16;" vertex="1" parent="1">
          <mxGeometry x="580" y="85" width="70" height="50" as="geometry" />
        </mxCell>
        <mxCell id="o8nmWfJphG2Q7k-7art1-35" value="&lt;font style=&quot;font-size: 12px&quot;&gt;Dirección&lt;/font&gt;" style="ellipse;whiteSpace=wrap;html=1;fontSize=16;" vertex="1" parent="1">
          <mxGeometry x="652" y="126" width="70" height="50" as="geometry" />
        </mxCell>
        <mxCell id="o8nmWfJphG2Q7k-7art1-36" value="&lt;font style=&quot;font-size: 12px&quot;&gt;Telléfono&lt;/font&gt;" style="ellipse;whiteSpace=wrap;html=1;fontSize=16;" vertex="1" parent="1">
          <mxGeometry x="705" y="177" width="70" height="50" as="geometry" />
        </mxCell>
        <mxCell id="o8nmWfJphG2Q7k-7art1-37" value="" style="endArrow=none;html=1;rounded=0;fontSize=12;" edge="1" parent="1">
          <mxGeometry width="50" height="50" relative="1" as="geometry">
            <mxPoint x="677" y="240" as="sourcePoint" />
            <mxPoint x="718" y="220" as="targetPoint" />
          </mxGeometry>
        </mxCell>
        <mxCell id="o8nmWfJphG2Q7k-7art1-38" value="" style="endArrow=none;html=1;rounded=0;fontSize=12;exitX=0.75;exitY=0;exitDx=0;exitDy=0;" edge="1" parent="1" source="o8nmWfJphG2Q7k-7art1-2">
          <mxGeometry width="50" height="50" relative="1" as="geometry">
            <mxPoint x="640" y="227" as="sourcePoint" />
            <mxPoint x="680" y="180" as="targetPoint" />
          </mxGeometry>
        </mxCell>
        <mxCell id="o8nmWfJphG2Q7k-7art1-40" value="" style="endArrow=none;html=1;rounded=0;fontSize=12;entryX=0.5;entryY=1;entryDx=0;entryDy=0;" edge="1" parent="1" target="o8nmWfJphG2Q7k-7art1-34">
          <mxGeometry width="50" height="50" relative="1" as="geometry">
            <mxPoint x="615" y="239" as="sourcePoint" />
            <mxPoint x="660" y="189" as="targetPoint" />
          </mxGeometry>
        </mxCell>
        <mxCell id="o8nmWfJphG2Q7k-7art1-41" value="" style="endArrow=none;html=1;rounded=0;fontSize=12;" edge="1" parent="1">
          <mxGeometry width="50" height="50" relative="1" as="geometry">
            <mxPoint x="590" y="241" as="sourcePoint" />
            <mxPoint x="550" y="171" as="targetPoint" />
          </mxGeometry>
        </mxCell>
        <mxCell id="o8nmWfJphG2Q7k-7art1-42" value="" style="endArrow=none;html=1;rounded=0;fontSize=12;entryX=1;entryY=1;entryDx=0;entryDy=0;" edge="1" parent="1" target="o8nmWfJphG2Q7k-7art1-32">
          <mxGeometry width="50" height="50" relative="1" as="geometry">
            <mxPoint x="559" y="240" as="sourcePoint" />
            <mxPoint x="609" y="190" as="targetPoint" />
          </mxGeometry>
        </mxCell>
        <mxCell id="o8nmWfJphG2Q7k-7art1-43" value="&lt;font style=&quot;font-size: 31px&quot;&gt;&lt;b&gt;Biblioteca - Modelo Conceptual&lt;/b&gt;&lt;/font&gt;" style="text;html=1;align=center;verticalAlign=middle;resizable=0;points=[];autosize=1;strokeColor=none;fillColor=none;fontSize=12;" vertex="1" parent="1">
          <mxGeometry x="161" y="385" width="480" height="30" as="geometry" />
        </mxCell>
      </root>
    </mxGraphModel>
  </diagram>
</mxfile>
